<mxfile host="app.diagrams.net" agent="Mozilla/5.0 (Windows NT 10.0; Win64; x64) AppleWebKit/537.36 (KHTML, like Gecko) Chrome/132.0.0.0 Safari/537.36" version="26.0.14">
  <diagram name="Page-1" id="qwZ8kWKJCcgUKvAtsBQa">
    <mxGraphModel dx="1120" dy="426" grid="1" gridSize="10" guides="1" tooltips="1" connect="1" arrows="1" fold="1" page="1" pageScale="1" pageWidth="850" pageHeight="1100" math="0" shadow="0">
      <root>
        <mxCell id="0" />
        <mxCell id="1" parent="0" />
        <mxCell id="eIPhhPovpJBlA85TRABr-5" style="edgeStyle=orthogonalEdgeStyle;rounded=0;orthogonalLoop=1;jettySize=auto;html=1;entryX=0;entryY=0.5;entryDx=0;entryDy=0;" edge="1" parent="1" source="eIPhhPovpJBlA85TRABr-1" target="eIPhhPovpJBlA85TRABr-2">
          <mxGeometry relative="1" as="geometry" />
        </mxCell>
        <mxCell id="eIPhhPovpJBlA85TRABr-6" value="INPUT DATA TRANSAKSI,&lt;div&gt;PELANGGAN, USER,&lt;/div&gt;&lt;div&gt;OUTLET&lt;/div&gt;" style="edgeLabel;html=1;align=center;verticalAlign=middle;resizable=0;points=[];" vertex="1" connectable="0" parent="eIPhhPovpJBlA85TRABr-5">
          <mxGeometry x="0.0514" y="2" relative="1" as="geometry">
            <mxPoint as="offset" />
          </mxGeometry>
        </mxCell>
        <mxCell id="eIPhhPovpJBlA85TRABr-1" value="ADMIN" style="rounded=0;whiteSpace=wrap;html=1;" vertex="1" parent="1">
          <mxGeometry x="130" y="120" width="120" height="60" as="geometry" />
        </mxCell>
        <mxCell id="eIPhhPovpJBlA85TRABr-10" style="edgeStyle=orthogonalEdgeStyle;rounded=0;orthogonalLoop=1;jettySize=auto;html=1;" edge="1" parent="1" source="eIPhhPovpJBlA85TRABr-2">
          <mxGeometry relative="1" as="geometry">
            <mxPoint x="690" y="150" as="targetPoint" />
          </mxGeometry>
        </mxCell>
        <mxCell id="eIPhhPovpJBlA85TRABr-12" value="DATA DISIMPAN" style="edgeLabel;html=1;align=center;verticalAlign=middle;resizable=0;points=[];" vertex="1" connectable="0" parent="eIPhhPovpJBlA85TRABr-10">
          <mxGeometry x="-0.032" y="-1" relative="1" as="geometry">
            <mxPoint as="offset" />
          </mxGeometry>
        </mxCell>
        <mxCell id="eIPhhPovpJBlA85TRABr-2" value="PROSES&lt;div&gt;INPUT&lt;/div&gt;" style="ellipse;whiteSpace=wrap;html=1;aspect=fixed;" vertex="1" parent="1">
          <mxGeometry x="470" y="110" width="80" height="80" as="geometry" />
        </mxCell>
        <mxCell id="eIPhhPovpJBlA85TRABr-8" style="edgeStyle=orthogonalEdgeStyle;rounded=0;orthogonalLoop=1;jettySize=auto;html=1;entryX=0.5;entryY=1;entryDx=0;entryDy=0;" edge="1" parent="1" source="eIPhhPovpJBlA85TRABr-7" target="eIPhhPovpJBlA85TRABr-2">
          <mxGeometry relative="1" as="geometry" />
        </mxCell>
        <mxCell id="eIPhhPovpJBlA85TRABr-9" value="INPUT DATA TRANSAKSI,&lt;div&gt;PELANGGAN&lt;/div&gt;" style="edgeLabel;html=1;align=center;verticalAlign=middle;resizable=0;points=[];" vertex="1" connectable="0" parent="eIPhhPovpJBlA85TRABr-8">
          <mxGeometry x="-0.2625" relative="1" as="geometry">
            <mxPoint as="offset" />
          </mxGeometry>
        </mxCell>
        <mxCell id="eIPhhPovpJBlA85TRABr-7" value="KASIR" style="rounded=0;whiteSpace=wrap;html=1;" vertex="1" parent="1">
          <mxGeometry x="130" y="220" width="120" height="60" as="geometry" />
        </mxCell>
        <mxCell id="eIPhhPovpJBlA85TRABr-13" style="edgeStyle=orthogonalEdgeStyle;rounded=0;orthogonalLoop=1;jettySize=auto;html=1;" edge="1" parent="1" source="eIPhhPovpJBlA85TRABr-11" target="eIPhhPovpJBlA85TRABr-1">
          <mxGeometry relative="1" as="geometry">
            <Array as="points">
              <mxPoint x="730" y="50" />
              <mxPoint x="190" y="50" />
            </Array>
          </mxGeometry>
        </mxCell>
        <mxCell id="eIPhhPovpJBlA85TRABr-14" value="LAPORAN" style="edgeLabel;html=1;align=center;verticalAlign=middle;resizable=0;points=[];" vertex="1" connectable="0" parent="eIPhhPovpJBlA85TRABr-13">
          <mxGeometry y="-1" relative="1" as="geometry">
            <mxPoint as="offset" />
          </mxGeometry>
        </mxCell>
        <mxCell id="eIPhhPovpJBlA85TRABr-15" style="edgeStyle=orthogonalEdgeStyle;rounded=0;orthogonalLoop=1;jettySize=auto;html=1;entryX=0.5;entryY=1;entryDx=0;entryDy=0;" edge="1" parent="1" source="eIPhhPovpJBlA85TRABr-11" target="eIPhhPovpJBlA85TRABr-7">
          <mxGeometry relative="1" as="geometry">
            <Array as="points">
              <mxPoint x="730" y="330" />
              <mxPoint x="190" y="330" />
            </Array>
          </mxGeometry>
        </mxCell>
        <mxCell id="eIPhhPovpJBlA85TRABr-16" value="LAPORAN" style="edgeLabel;html=1;align=center;verticalAlign=middle;resizable=0;points=[];" vertex="1" connectable="0" parent="eIPhhPovpJBlA85TRABr-15">
          <mxGeometry x="0.1205" y="3" relative="1" as="geometry">
            <mxPoint as="offset" />
          </mxGeometry>
        </mxCell>
        <mxCell id="eIPhhPovpJBlA85TRABr-18" style="edgeStyle=orthogonalEdgeStyle;rounded=0;orthogonalLoop=1;jettySize=auto;html=1;" edge="1" parent="1" source="eIPhhPovpJBlA85TRABr-11" target="eIPhhPovpJBlA85TRABr-17">
          <mxGeometry relative="1" as="geometry" />
        </mxCell>
        <mxCell id="eIPhhPovpJBlA85TRABr-19" value="LAPORAN" style="edgeLabel;html=1;align=center;verticalAlign=middle;resizable=0;points=[];" vertex="1" connectable="0" parent="eIPhhPovpJBlA85TRABr-18">
          <mxGeometry x="-0.1692" relative="1" as="geometry">
            <mxPoint as="offset" />
          </mxGeometry>
        </mxCell>
        <mxCell id="eIPhhPovpJBlA85TRABr-11" value="DATABASE" style="ellipse;whiteSpace=wrap;html=1;aspect=fixed;" vertex="1" parent="1">
          <mxGeometry x="690" y="110" width="80" height="80" as="geometry" />
        </mxCell>
        <mxCell id="eIPhhPovpJBlA85TRABr-17" value="OWNER" style="rounded=0;whiteSpace=wrap;html=1;" vertex="1" parent="1">
          <mxGeometry x="900" y="120" width="120" height="60" as="geometry" />
        </mxCell>
      </root>
    </mxGraphModel>
  </diagram>
</mxfile>
